<?xml version="1.0" encoding="UTF-8" standalone="no"?>
<!-- Created with Inkscape (http://www.inkscape.org/) -->

<svg
   xmlns:dc="http://purl.org/dc/elements/1.1/"
   xmlns:cc="http://creativecommons.org/ns#"
   xmlns:rdf="http://www.w3.org/1999/02/22-rdf-syntax-ns#"
   xmlns:svg="http://www.w3.org/2000/svg"
   xmlns="http://www.w3.org/2000/svg"
   xmlns:sodipodi="http://sodipodi.sourceforge.net/DTD/sodipodi-0.dtd"
   xmlns:inkscape="http://www.inkscape.org/namespaces/inkscape"
   width="64"
   height="64"
   id="svg10186"
   version="1.1"
   inkscape:version="0.91 r13725"
   viewBox="0 0 64 64"
   sodipodi:docname="duo_red.svg">
  <defs
     id="defs10188" />
  <sodipodi:namedview
     id="base"
     pagecolor="#ffffff"
     bordercolor="#666666"
     borderopacity="1.0"
     inkscape:pageopacity="0.0"
     inkscape:pageshadow="2"
     inkscape:zoom="7.7781746"
     inkscape:cx="-56.756015"
     inkscape:cy="31.580861"
     inkscape:current-layer="layer1"
     showgrid="true"
     inkscape:document-units="px"
     inkscape:grid-bbox="true"
     inkscape:window-width="1366"
     inkscape:window-height="713"
     inkscape:window-x="0"
     inkscape:window-y="22"
     inkscape:window-maximized="1" />
  <metadata
     id="metadata10191">
    <rdf:RDF>
      <cc:Work
         rdf:about="">
        <dc:format>image/svg+xml</dc:format>
        <dc:type
           rdf:resource="http://purl.org/dc/dcmitype/StillImage" />
        <dc:title />
      </cc:Work>
    </rdf:RDF>
  </metadata>
  <g
     id="layer1"
     inkscape:label="Layer 1"
     inkscape:groupmode="layer">
    <path
       inkscape:connector-curvature="0"
       d="m 22.289476,1.8769043 c 5.525841,0 6.85312,7.340689 17.742266,7.340689 6.880198,0 7.259426,-2.844177 10.428655,-2.844177 1.300192,0 2.031569,2.492048 2.031569,4.1443787 0,6.528064 -1.679414,13.841669 -0.595936,13.841669 1.435638,0 7.232356,-3.738062 8.722154,-3.738062 1.435663,0 1.381465,1.110591 1.381465,1.733592 0,0.623012 0.433383,11.457989 -14.220903,19.990524 -0.6501,0.379189 -3.738066,13.923047 -14.70848,13.923047 -7.313597,0 -12.893605,-3.9549 -15.006423,-13.43545 C 17.630446,40.882807 2.001,34.706863 2.001,21.136071 c 0,-2.979623 0.7584451,-4.604872 1.8961192,-4.604872 2.8712556,0 9.0472038,4.848648 11.7017728,4.848648 2.302424,0 1.923201,-5.011178 1.923201,-6.528073 0.05407,-1.543986 -0.08126,-12.9748697 4.767383,-12.9748697 z"
       id="path37"
       style="color:#000000;clip-rule:nonzero;display:inline;overflow:visible;visibility:visible;opacity:1;isolation:auto;mix-blend-mode:normal;color-interpolation:sRGB;color-interpolation-filters:linearRGB;solid-color:#000000;solid-opacity:1;fill:#ff0000;fill-opacity:1;fill-rule:nonzero;stroke-width:1;stroke-linecap:butt;stroke-linejoin:miter;stroke-miterlimit:4;stroke-dasharray:none;stroke-dashoffset:0;stroke-opacity:1;color-rendering:auto;image-rendering:auto;shape-rendering:auto;text-rendering:auto;enable-background:accumulate" />
    <path
       inkscape:connector-curvature="0"
       d="m 30.957451,58.056251 c 1.869053,-0.108368 3.22341,0.297877 3.30467,1.977331 0.08125,1.679453 -2.194083,2.112835 -3.413015,2.194105 -1.218934,0.05464 -2.600395,-0.487582 -2.654565,-1.706526 -0.05406,-1.191834 1.056403,-2.356605 2.76291,-2.46491 z"
       id="path65"
       style="color:#000000;clip-rule:nonzero;display:inline;overflow:visible;visibility:visible;opacity:1;isolation:auto;mix-blend-mode:normal;color-interpolation:sRGB;color-interpolation-filters:linearRGB;solid-color:#000000;solid-opacity:1;fill:#ff0000;fill-opacity:1;fill-rule:nonzero;stroke-width:1;stroke-linecap:butt;stroke-linejoin:miter;stroke-miterlimit:4;stroke-dasharray:none;stroke-dashoffset:0;stroke-opacity:1;color-rendering:auto;image-rendering:auto;shape-rendering:auto;text-rendering:auto;enable-background:accumulate" />
    <path
       inkscape:connector-curvature="0"
       d="m 42.469614,54.616163 c 1.787766,-0.08131 1.81486,1.841932 1.841943,2.004407 0,0.162543 0.189606,2.031533 -2.952527,2.194127 -1.977386,0.108311 -1.923209,-0.785511 -1.950299,-1.218949 0,-0.460517 0.785531,-2.844168 3.060883,-2.979585 z"
       id="path67"
       style="color:#000000;clip-rule:nonzero;display:inline;overflow:visible;visibility:visible;opacity:1;isolation:auto;mix-blend-mode:normal;color-interpolation:sRGB;color-interpolation-filters:linearRGB;solid-color:#000000;solid-opacity:1;fill:#ff0000;fill-opacity:1;fill-rule:nonzero;stroke-width:1;stroke-linecap:butt;stroke-linejoin:miter;stroke-miterlimit:4;stroke-dasharray:none;stroke-dashoffset:0;stroke-opacity:1;color-rendering:auto;image-rendering:auto;shape-rendering:auto;text-rendering:auto;enable-background:accumulate" />
  </g>
</svg>
