<?xml version="1.0" encoding="UTF-8" standalone="no"?>
<!-- Created with Inkscape (http://www.inkscape.org/) -->

<svg
   xmlns:dc="http://purl.org/dc/elements/1.1/"
   xmlns:cc="http://creativecommons.org/ns#"
   xmlns:rdf="http://www.w3.org/1999/02/22-rdf-syntax-ns#"
   xmlns:svg="http://www.w3.org/2000/svg"
   xmlns="http://www.w3.org/2000/svg"
   xmlns:sodipodi="http://sodipodi.sourceforge.net/DTD/sodipodi-0.dtd"
   xmlns:inkscape="http://www.inkscape.org/namespaces/inkscape"
   width="16"
   height="16"
   id="svg2"
   sodipodi:version="0.32"
   inkscape:version="0.91 r13725"
   version="1.0"
   sodipodi:docname="duolingo.svg"
   inkscape:output_extension="org.inkscape.output.svg.inkscape">
  <defs
     id="defs4" />
  <sodipodi:namedview
     id="base"
     pagecolor="#ffffff"
     bordercolor="#9a9a9a"
     borderopacity="1"
     inkscape:pageopacity="0.0"
     inkscape:pageshadow="2"
     inkscape:zoom="12.35596"
     inkscape:cx="-13.303136"
     inkscape:cy="10.879504"
     inkscape:document-units="px"
     inkscape:current-layer="layer3"
     showgrid="true"
     inkscape:showpageshadow="false"
     showguides="true"
     inkscape:guide-bbox="true"
     inkscape:window-width="1366"
     inkscape:window-height="713"
     inkscape:window-x="0"
     inkscape:window-y="22"
     inkscape:window-maximized="1">
    <sodipodi:guide
       orientation="1,0"
       position="0,112"
       id="guide2383" />
    <sodipodi:guide
       orientation="0,1"
       position="26.278146,128"
       id="guide2385" />
    <sodipodi:guide
       orientation="1,0"
       position="128,54.082119"
       id="guide2387" />
    <sodipodi:guide
       orientation="0,1"
       position="78.156291,0"
       id="guide2389" />
    <inkscape:grid
       type="xygrid"
       id="grid3672"
       visible="true"
       enabled="true" />
  </sodipodi:namedview>
  <metadata
     id="metadata7">
    <rdf:RDF>
      <cc:Work
         rdf:about="">
        <dc:format>image/svg+xml</dc:format>
        <dc:type
           rdf:resource="http://purl.org/dc/dcmitype/StillImage" />
        <dc:title></dc:title>
      </cc:Work>
    </rdf:RDF>
  </metadata>
  <g
     inkscape:groupmode="layer"
     id="layer3"
     inkscape:label="Cross"
     style="display:inline"
     transform="translate(-3,-2.9995677)">
    <path
       inkscape:connector-curvature="0"
       d="m 8.6038733,3.5045525 c 1.3814615,0 1.7132807,1.8351723 4.4355687,1.8351723 1.72005,0 1.814856,-0.7110449 2.607163,-0.7110449 0.325048,0 0.507892,0.6230129 0.507892,1.0360949 0,1.6320162 -0.419852,3.4604178 -0.148983,3.4604178 0.358906,0 1.808086,-0.934516 2.180536,-0.934516 0.358918,0 0.345367,0.2776479 0.345367,0.4333978 0,0.1557533 0.108344,2.8644986 -3.555225,4.9976336 -0.162523,0.09478 -0.934519,3.48076 -3.677122,3.48076 -1.8283972,0 -3.2234005,-0.98873 -3.751604,-3.358866 -0.1083503,-0.487573 -4.0157114,-2.031557 -4.0157114,-5.4242584 0,-0.7449054 0.189611,-1.1512171 0.47403,-1.1512171 0.7178143,0 2.2617998,1.2121612 2.9254427,1.2121612 0.5756067,0 0.4808004,-1.2527945 0.4808004,-1.6320173 0.01352,-0.3859978 -0.020312,-3.2437179 1.1918456,-3.2437179 z"
       id="path37"
       style="color:#000000;clip-rule:nonzero;display:inline;overflow:visible;visibility:visible;opacity:1;isolation:auto;mix-blend-mode:normal;color-interpolation:sRGB;color-interpolation-filters:linearRGB;solid-color:#000000;solid-opacity:1;fill:#bebebe;fill-opacity:1;fill-rule:nonzero;stroke-width:1;stroke-linecap:butt;stroke-linejoin:miter;stroke-miterlimit:4;stroke-dasharray:none;stroke-dashoffset:0;stroke-opacity:1;color-rendering:auto;image-rendering:auto;shape-rendering:auto;text-rendering:auto;enable-background:accumulate" />
    <path
       inkscape:connector-curvature="0"
       d="m 10.77087,17.549385 c 0.467262,-0.02708 0.805849,0.07451 0.826168,0.494338 0.02036,0.419862 -0.548521,0.528205 -0.853259,0.548527 -0.30473,0.01365 -0.650098,-0.121898 -0.663638,-0.426629 -0.01352,-0.297965 0.264102,-0.589155 0.690729,-0.616236 z"
       id="path65"
       style="color:#000000;clip-rule:nonzero;display:inline;overflow:visible;visibility:visible;opacity:1;isolation:auto;mix-blend-mode:normal;color-interpolation:sRGB;color-interpolation-filters:linearRGB;solid-color:#000000;solid-opacity:1;fill:#bebebe;fill-opacity:1;fill-rule:nonzero;stroke-width:1;stroke-linecap:butt;stroke-linejoin:miter;stroke-miterlimit:4;stroke-dasharray:none;stroke-dashoffset:0;stroke-opacity:1;color-rendering:auto;image-rendering:auto;shape-rendering:auto;text-rendering:auto;enable-background:accumulate" />
    <path
       inkscape:connector-curvature="0"
       d="m 13.648909,16.689368 c 0.446941,-0.02037 0.453715,0.460484 0.460487,0.501104 0,0.04063 0.04744,0.507875 -0.738131,0.548525 -0.49435,0.02707 -0.480806,-0.196378 -0.48758,-0.304733 0,-0.115133 0.196387,-0.711039 0.765224,-0.744896 z"
       id="path67"
       style="color:#000000;clip-rule:nonzero;display:inline;overflow:visible;visibility:visible;opacity:1;isolation:auto;mix-blend-mode:normal;color-interpolation:sRGB;color-interpolation-filters:linearRGB;solid-color:#000000;solid-opacity:1;fill:#bebebe;fill-opacity:1;fill-rule:nonzero;stroke-width:1;stroke-linecap:butt;stroke-linejoin:miter;stroke-miterlimit:4;stroke-dasharray:none;stroke-dashoffset:0;stroke-opacity:1;color-rendering:auto;image-rendering:auto;shape-rendering:auto;text-rendering:auto;enable-background:accumulate" />
  </g>
</svg>
